<svg width="233" height="162" viewBox="0 0 233 162" fill="none" xmlns="http://www.w3.org/2000/svg">
<g id="Group 5">
<path id="Vector" d="M102.143 34.2857C102.143 24.8304 109.83 17.1429 119.286 17.1429H127.857C137.312 17.1429 145 24.8304 145 34.2857V35.25C145 41.0893 142.027 46.5268 137.125 49.6607L125.821 56.9196C119.071 61.2589 115 68.7321 115 76.7411V77.1429C115 81.8839 118.83 85.7143 123.571 85.7143C128.312 85.7143 132.143 81.8839 132.143 77.1429V76.7679C132.143 74.5714 133.268 72.5357 135.089 71.3571L146.393 64.0982C156.196 57.7768 162.143 46.9286 162.143 35.25V34.2857C162.143 15.3482 146.795 0 127.857 0H119.286C100.348 0 85 15.3482 85 34.2857C85 39.0268 88.8304 42.8571 93.5714 42.8571C98.3125 42.8571 102.143 39.0268 102.143 34.2857ZM123.571 120C126.413 120 129.138 118.871 131.148 116.862C133.157 114.853 134.286 112.127 134.286 109.286C134.286 106.444 133.157 103.719 131.148 101.71C129.138 99.7002 126.413 98.5714 123.571 98.5714C120.73 98.5714 118.005 99.7002 115.995 101.71C113.986 103.719 112.857 106.444 112.857 109.286C112.857 112.127 113.986 114.853 115.995 116.862C118.005 118.871 120.73 120 123.571 120Z" fill="#1E3050"/>
<path id="Vector_2" d="M24.6571 81.8863C21.9788 73.6431 26.5031 64.7635 34.7463 62.0851L42.2189 59.6572C50.4621 56.9788 59.3417 61.5031 62.0201 69.7463L62.2932 70.587C63.9473 75.6777 62.8955 81.2603 59.5098 85.381L51.7116 94.9113C47.0561 100.606 45.6235 108.275 47.8922 115.257L48.006 115.607C49.3489 119.741 53.7733 121.995 57.9065 120.652C62.0398 119.309 64.2941 114.885 62.9511 110.751L62.8449 110.424C62.2227 108.509 62.6269 106.416 63.8809 104.873L71.6792 95.3424C78.4353 87.0543 80.5465 75.9124 77.2384 65.731L76.9652 64.8904C71.6009 48.3806 53.8727 39.3476 37.3629 44.712L29.8903 47.14C13.3806 52.5043 4.34762 70.2325 9.71196 86.7423C11.0549 90.8756 15.4793 93.1299 19.6125 91.7869C23.7458 90.4439 26.0001 86.0196 24.6571 81.8863ZM67.6185 150.542C70.0958 149.737 72.1519 147.981 73.3345 145.66C74.517 143.339 74.7292 140.644 73.9242 138.166C73.1193 135.689 71.3632 133.633 69.0423 132.45C66.7215 131.268 64.0258 131.056 61.5485 131.861C59.0712 132.666 57.0151 134.422 55.8326 136.743C54.65 139.064 54.4379 141.759 55.2428 144.236C56.0477 146.714 57.8038 148.77 60.1247 149.952C62.4456 151.135 65.1412 151.347 67.6185 150.542Z" fill="#1E3050"/>
<path id="Vector_3" d="M177.141 79.1788C179.048 71.5334 186.813 66.8672 194.459 68.7734L201.39 70.5014C209.035 72.4076 213.701 80.1734 211.795 87.8188L211.6 88.5985C210.423 93.3201 206.923 97.1173 202.328 98.6631L191.724 102.254C185.392 104.402 180.593 109.623 178.978 116.099L178.897 116.424C177.942 120.258 180.267 124.127 184.1 125.083C187.934 126.039 191.803 123.714 192.759 119.88L192.834 119.577C193.277 117.801 194.597 116.382 196.308 115.796L206.911 112.205C216.112 109.07 223.107 101.498 225.462 92.0546L225.656 91.2749C229.474 75.9624 220.158 60.4579 204.846 56.6401L197.915 54.9121C182.602 51.0942 167.098 60.4103 163.28 75.7227C162.324 79.5563 164.649 83.4256 168.483 84.3814C172.316 85.3372 176.186 83.0123 177.141 79.1788ZM177.188 152.806C179.486 153.379 181.917 153.015 183.947 151.796C185.976 150.576 187.439 148.6 188.011 146.302C188.584 144.005 188.221 141.573 187.001 139.544C185.782 137.514 183.806 136.052 181.508 135.479C179.21 134.906 176.779 135.269 174.749 136.489C172.72 137.709 171.258 139.685 170.685 141.982C170.112 144.28 170.475 146.711 171.695 148.741C172.914 150.771 174.89 152.233 177.188 152.806Z" fill="#1E3050"/>
</g>
</svg>
