<svg width="71" height="80" viewBox="0 0 71 80" fill="none" xmlns="http://www.w3.org/2000/svg">
<path id="My" d="M35.2 40C40.5043 40 45.5914 37.8929 49.3421 34.1421C53.0928 30.3914 55.2 25.3043 55.2 20C55.2 14.6957 53.0928 9.60859 49.3421 5.85786C45.5914 2.10714 40.5043 0 35.2 0C29.8956 0 24.8085 2.10714 21.0578 5.85786C17.3071 9.60859 15.2 14.6957 15.2 20C15.2 25.3043 17.3071 30.3914 21.0578 34.1421C24.8085 37.8929 29.8956 40 35.2 40ZM28.0593 47.5C12.6687 47.5 0.199951 59.9688 0.199951 75.3594C0.199951 77.9219 2.27808 80 4.84058 80H65.5593C68.1218 80 70.2 77.9219 70.2 75.3594C70.2 59.9688 57.7312 47.5 42.3406 47.5H28.0593Z" fill="white" fill-opacity="0.7"/>
</svg>
