<svg width="57" height="65" viewBox="0 0 57 65" fill="none" xmlns="http://www.w3.org/2000/svg">
<path id="My" d="M28.4375 32.5C32.7473 32.5 36.8805 30.788 39.928 27.7405C42.9755 24.693 44.6875 20.5598 44.6875 16.25C44.6875 11.9402 42.9755 7.80698 39.928 4.75951C36.8805 1.71205 32.7473 0 28.4375 0C24.1277 0 19.9945 1.71205 16.947 4.75951C13.8995 7.80698 12.1875 11.9402 12.1875 16.25C12.1875 20.5598 13.8995 24.693 16.947 27.7405C19.9945 30.788 24.1277 32.5 28.4375 32.5ZM22.6357 38.5938C10.1309 38.5938 0 48.7246 0 61.2295C0 63.3115 1.68848 65 3.77051 65H53.1045C55.1865 65 56.875 63.3115 56.875 61.2295C56.875 48.7246 46.7441 38.5938 34.2393 38.5938H22.6357Z" fill="#1E3050"/>
</svg>
