<svg width="40" height="71" viewBox="0 0 40 71" fill="none" xmlns="http://www.w3.org/2000/svg">
<path id="Union" fill-rule="evenodd" clip-rule="evenodd" d="M38.6612 1.85568C37.0991 0.293578 34.5393 0.266395 32.9772 1.82849L1.82843 32.9772C0.26633 34.5393 0.266332 37.072 1.82843 38.6341L4.71104 41.5167C4.71114 41.5168 4.7113 41.5168 4.7114 41.5167C4.7115 41.5166 4.71166 41.5166 4.71176 41.5167L32.9779 69.7828C34.54 71.3449 37.0998 71.3177 38.6619 69.7556C40.224 68.1935 40.2512 65.6337 38.6891 64.0716L13.2512 38.6337C11.6891 37.0716 11.6891 34.539 13.2512 32.9769L38.6884 7.53971C40.2505 5.97761 40.2233 3.41777 38.6612 1.85568Z" fill="white"/>
</svg>
