<svg width="61" height="60" viewBox="0 0 61 60" fill="none" xmlns="http://www.w3.org/2000/svg">
<path id="Vector" d="M49.2407 24.3714C49.2407 29.7495 47.4945 34.7176 44.5529 38.7482L59.3896 53.5937C60.8545 55.0583 60.8545 57.4369 59.3896 58.9015C57.9247 60.3662 55.5457 60.3662 54.0807 58.9015L39.2441 44.056C35.2126 47.0087 30.2436 48.7429 24.8645 48.7429C11.399 48.7429 0.488281 37.8343 0.488281 24.3714C0.488281 10.9086 11.399 0 24.8645 0C38.33 0 49.2407 10.9086 49.2407 24.3714ZM24.8645 41.244C27.0806 41.244 29.2751 40.8075 31.3226 39.9596C33.37 39.1117 35.2304 37.8689 36.7975 36.3021C38.3645 34.7353 39.6076 32.8753 40.4557 30.8283C41.3038 28.7812 41.7403 26.5872 41.7403 24.3714C41.7403 22.1557 41.3038 19.9617 40.4557 17.9146C39.6076 15.8675 38.3645 14.0075 36.7975 12.4408C35.2304 10.874 33.37 9.63117 31.3226 8.78325C29.2751 7.93532 27.0806 7.4989 24.8645 7.4989C22.6483 7.4989 20.4538 7.93532 18.4064 8.78325C16.3589 9.63117 14.4985 10.874 12.9315 12.4408C11.3644 14.0075 10.1213 15.8675 9.27324 17.9146C8.42515 19.9617 7.98865 22.1557 7.98865 24.3714C7.98865 26.5872 8.42515 28.7812 9.27324 30.8283C10.1213 32.8753 11.3644 34.7353 12.9315 36.3021C14.4985 37.8689 16.3589 39.1117 18.4064 39.9596C20.4538 40.8075 22.6483 41.244 24.8645 41.244Z" fill="#73CBDE"/>
</svg>
