<svg width="74" height="65" viewBox="0 0 74 65" fill="none" xmlns="http://www.w3.org/2000/svg">
<path id="&#235;&#169;&#148;&#236;&#157;&#184;&#237;&#153;&#148;&#235;&#169;&#180;" d="M73.0996 32.4365C73.0996 34.7217 71.1953 36.5117 69.0371 36.5117H64.9746L65.0635 56.8496C65.0635 57.1924 65.0381 57.5352 65 57.8779V59.9219C65 62.7275 62.7275 65 59.9219 65H57.8906C57.751 65 57.6113 65 57.4717 64.9873C57.2939 65 57.1162 65 56.9385 65H52.8125H49.7656C46.96 65 44.6875 62.7275 44.6875 59.9219V56.875V48.75C44.6875 46.5029 42.8721 44.6875 40.625 44.6875H32.5C30.2529 44.6875 28.4375 46.5029 28.4375 48.75V56.875V59.9219C28.4375 62.7275 26.165 65 23.3594 65H20.3125H16.2627C16.0723 65 15.8818 64.9873 15.6914 64.9746C15.5391 64.9873 15.3867 65 15.2344 65H13.2031C10.3975 65 8.125 62.7275 8.125 59.9219V45.7031C8.125 45.5889 8.125 45.4619 8.1377 45.3477V36.5117H4.0625C1.77734 36.5117 0 34.7344 0 32.4365C0 31.2939 0.380859 30.2783 1.26953 29.3896L33.8203 1.01562C34.709 0.126953 35.7246 0 36.6133 0C37.502 0 38.5176 0.253906 39.2793 0.888672L71.7031 29.3896C72.7188 30.2783 73.2266 31.2939 73.0996 32.4365Z" fill="#1E3050"/>
</svg>
