<svg width="60" height="80" viewBox="0 0 60 80" fill="none" xmlns="http://www.w3.org/2000/svg">
<path id="&#236;&#163;&#188;&#235;&#172;&#184;&#235;&#130;&#180;&#236;&#151;&#173;" d="M30 0C23.4688 0 17.9062 4.17188 15.8594 10H10C4.48438 10 0 14.4844 0 20V70C0 75.5156 4.48438 80 10 80H50C55.5156 80 60 75.5156 60 70V20C60 14.4844 55.5156 10 50 10H44.1406C42.0938 4.17188 36.5312 0 30 0ZM30 10C31.3261 10 32.5979 10.5268 33.5355 11.4645C34.4732 12.4021 35 13.6739 35 15C35 16.3261 34.4732 17.5979 33.5355 18.5355C32.5979 19.4732 31.3261 20 30 20C28.6739 20 27.4021 19.4732 26.4645 18.5355C25.5268 17.5979 25 16.3261 25 15C25 13.6739 25.5268 12.4021 26.4645 11.4645C27.4021 10.5268 28.6739 10 30 10ZM11.25 42.5C11.25 41.5054 11.6451 40.5516 12.3483 39.8484C13.0516 39.1451 14.0054 38.75 15 38.75C15.9946 38.75 16.9484 39.1451 17.6517 39.8484C18.3549 40.5516 18.75 41.5054 18.75 42.5C18.75 43.4946 18.3549 44.4484 17.6517 45.1516C16.9484 45.8549 15.9946 46.25 15 46.25C14.0054 46.25 13.0516 45.8549 12.3483 45.1516C11.6451 44.4484 11.25 43.4946 11.25 42.5ZM27.5 40H47.5C48.875 40 50 41.125 50 42.5C50 43.875 48.875 45 47.5 45H27.5C26.125 45 25 43.875 25 42.5C25 41.125 26.125 40 27.5 40ZM11.25 57.5C11.25 56.5054 11.6451 55.5516 12.3483 54.8484C13.0516 54.1451 14.0054 53.75 15 53.75C15.9946 53.75 16.9484 54.1451 17.6517 54.8484C18.3549 55.5516 18.75 56.5054 18.75 57.5C18.75 58.4946 18.3549 59.4484 17.6517 60.1516C16.9484 60.8549 15.9946 61.25 15 61.25C14.0054 61.25 13.0516 60.8549 12.3483 60.1516C11.6451 59.4484 11.25 58.4946 11.25 57.5ZM25 57.5C25 56.125 26.125 55 27.5 55H47.5C48.875 55 50 56.125 50 57.5C50 58.875 48.875 60 47.5 60H27.5C26.125 60 25 58.875 25 57.5Z" fill="white" fill-opacity="0.7"/>
</svg>
