<svg width="49" height="65" viewBox="0 0 49 65" fill="none" xmlns="http://www.w3.org/2000/svg">
<path id="&#236;&#163;&#188;&#235;&#172;&#184;&#235;&#130;&#180;&#236;&#151;&#173;" d="M24.375 0C19.0684 0 14.5488 3.38965 12.8857 8.125H8.125C3.64355 8.125 0 11.7686 0 16.25V56.875C0 61.3564 3.64355 65 8.125 65H40.625C45.1064 65 48.75 61.3564 48.75 56.875V16.25C48.75 11.7686 45.1064 8.125 40.625 8.125H35.8643C34.2012 3.38965 29.6816 0 24.375 0ZM24.375 8.125C25.4524 8.125 26.4858 8.55301 27.2476 9.31488C28.0095 10.0767 28.4375 11.1101 28.4375 12.1875C28.4375 13.2649 28.0095 14.2983 27.2476 15.0601C26.4858 15.822 25.4524 16.25 24.375 16.25C23.2976 16.25 22.2642 15.822 21.5024 15.0601C20.7405 14.2983 20.3125 13.2649 20.3125 12.1875C20.3125 11.1101 20.7405 10.0767 21.5024 9.31488C22.2642 8.55301 23.2976 8.125 24.375 8.125ZM9.14062 34.5312C9.14062 33.7232 9.46163 32.9482 10.033 32.3768C10.6044 31.8054 11.3794 31.4844 12.1875 31.4844C12.9956 31.4844 13.7706 31.8054 14.342 32.3768C14.9134 32.9482 15.2344 33.7232 15.2344 34.5312C15.2344 35.3393 14.9134 36.1143 14.342 36.6857C13.7706 37.2571 12.9956 37.5781 12.1875 37.5781C11.3794 37.5781 10.6044 37.2571 10.033 36.6857C9.46163 36.1143 9.14062 35.3393 9.14062 34.5312ZM22.3438 32.5H38.5938C39.7109 32.5 40.625 33.4141 40.625 34.5312C40.625 35.6484 39.7109 36.5625 38.5938 36.5625H22.3438C21.2266 36.5625 20.3125 35.6484 20.3125 34.5312C20.3125 33.4141 21.2266 32.5 22.3438 32.5ZM9.14062 46.7188C9.14062 45.9107 9.46163 45.1357 10.033 44.5643C10.6044 43.9929 11.3794 43.6719 12.1875 43.6719C12.9956 43.6719 13.7706 43.9929 14.342 44.5643C14.9134 45.1357 15.2344 45.9107 15.2344 46.7188C15.2344 47.5268 14.9134 48.3018 14.342 48.8732C13.7706 49.4446 12.9956 49.7656 12.1875 49.7656C11.3794 49.7656 10.6044 49.4446 10.033 48.8732C9.46163 48.3018 9.14062 47.5268 9.14062 46.7188ZM20.3125 46.7188C20.3125 45.6016 21.2266 44.6875 22.3438 44.6875H38.5938C39.7109 44.6875 40.625 45.6016 40.625 46.7188C40.625 47.8359 39.7109 48.75 38.5938 48.75H22.3438C21.2266 48.75 20.3125 47.8359 20.3125 46.7188Z" fill="#1E3050"/>
</svg>
