<svg width="85" height="72" viewBox="0 0 85 72" fill="none" xmlns="http://www.w3.org/2000/svg">
<path id="&#236;&#176;&#156;" d="M7.82735 42.4665L37.5417 70.2076C38.775 71.3587 40.403 72 42.0967 72C43.7904 72 45.4184 71.3587 46.6517 70.2076L76.366 42.4665C81.365 37.8129 84.1934 31.2846 84.1934 24.4603V23.5066C84.1934 12.0122 75.8892 2.21157 64.5592 0.320511C57.0608 -0.929234 49.4307 1.52093 44.07 6.88168L42.0967 8.85496L40.1234 6.88168C34.7627 1.52093 27.1326 -0.929234 19.6342 0.320511C8.30423 2.21157 0 12.0122 0 23.5066V24.4603C0 31.2846 2.82837 37.8129 7.82735 42.4665Z" fill="white" fill-opacity="0.7"/>
</svg>
