<svg width="71" height="60" viewBox="0 0 71 60" fill="none" xmlns="http://www.w3.org/2000/svg">
<path id="&#236;&#176;&#156;" d="M6.52279 35.3888L31.2847 58.5063C32.3125 59.4656 33.6691 60 35.0806 60C36.492 60 37.8487 59.4656 38.8764 58.5063L63.6384 35.3888C67.8042 31.5107 70.1612 26.0705 70.1612 20.3836V19.5888C70.1612 10.0102 63.241 1.84298 53.7994 0.267093C47.5506 -0.774362 41.1923 1.26744 36.725 5.73473L35.0806 7.37913L33.4362 5.73473C28.9689 1.26744 22.6105 -0.774362 16.3618 0.267093C6.92019 1.84298 0 10.0102 0 19.5888V20.3836C0 26.0705 2.35698 31.5107 6.52279 35.3888Z" fill="#1E3050"/>
</svg>
